<svg xmlns="http://www.w3.org/2000/svg" viewBox="0 0 865.71 865.71"><defs><style>.a{fill:#bfedef;stroke:#222955;stroke-width:0.25px;}.a,.b,.c{stroke-miterlimit:10;}.b{fill:#ee92c2;stroke:#ee92c2;}.b,.c{stroke-width:4px;}.c{fill:none;stroke:#232856;}</style></defs><title>Logo</title><circle class="a" cx="432.85" cy="432.85" r="432.73"/><circle class="b" cx="432.85" cy="432.85" r="314.98"/><path class="c" d="M500.21,295.91s8.27,5.31,0,5.31c0,0-4.14,4.17,0,8.73,0,0,12,9.11,13.16,13.28,0,0,9,6.45-4.14,19.36,0,0-1.13,1.52,1.5,4.17,0,0,3.76,3,.75,6.07A164.74,164.74,0,0,1,529.15,368s3.38,4.17,5.26,4.17c0,0,1.5.76-1.88,2.66,0,0,4.89,6.83,6.39,6.07l1.2,1.85s17.21,14.15,17.21,16.88c0,0,8.85-2.23,6.64,5.46,0,0,12,9.18,26.06,1.74,0,0-2.7-6.45,5.9-5.21,0,0,3,3,5.9.25,0,0,32.7-27.3,53.59,2.48,0,0-.74,4.58-4.18,5.39,0,0-21.63-9.86-42.78,13.47,0,0-17,18.61,1.23,38.22,0,0,16.23,18.12,45.73,33,0,0,18.44-9.43,20.16-24.07,0,0-6.88-1,3.69-11.42,0,0,3.44-6.7,3.93-10.18,0,0,3.93-13.9,3.2-16.13,0,0,3-12.16,12-20.85,0,0,4.92-2,5.16-6.7,0,0-1.72-7.45,8.11-4.72,0,0,10.33,6.7,10.33,8.19,0,0,4.92,1.49,13.77-2.23,0,0,9.1-3.72,13,3.72,0,0-1.23.5-4.92,1.74,0,0-7.38,9.18-16,10.18,0,0-12,6-11.55,8.19,0,0,2.21.74-2,6,0,0-1,8.93-.49,9.93s3.93,7.94,0,12.41c0,0-1,10.42,2.46,6.7,0,0,5.16,1.49-5.41,7.94,0,0-.74,29.28,1,37,0,0,1.23,44.67-20.9,54.35,0,0-7.87,6.7-22.13,8.93,0,0-9.83,2.48-12,7.45,0,0-5.16,6.7-13.52-3,0,0-11.31-2-31,10.42l-8.11,7.45s-6.39,10.42-14.26,13.4c0,0-7.13,3.72-5.41,7.2,0,0,1,11.66,5.16,12.66,0,0,17.95,14.89,26.55,13.15,0,0,14.5-12.41,21.63,6.2,0,0,4.92,14.15-12.29,21.59,0,0-10.57,7.2-36.63,0l-2.46,5.21-18.44,1.49s-6.88-4.22-9.1-3.47c0,0-14,.74-25.81-5.71,0,0-2.21,7.45-9.34,7.2s-15.24.25-15.24.25-6.58,6.95-10.3-1.49c0,0-4-.25-4.7.25s-10.57,2.73-13.28,1-8.6-2.48-7.62-10.42c0,0-12.54,6.45-23.6,4.72s-10.33,6.45-10.33,6.45H418.2v-7.69s-17,4.22-22.62,4c0,0-17.95,1-20.65-2,0,0-9.34-3.23-9.34-10.42,0,0-3-7.69,12-15.64l3.69-.25s7.62-1.49,28-22.09c0,0,1.48-2.23.25-3.47s-2.21-4.22,0-6.2c0,0-22.62-14.89-23.6-19.61,0,0-15-12.66-17.95-10.92,0,0,15.75,17.12-2.69,36.73,0,0-17,15.39-30-2.23,0,0-2-6.95,0-8.44s4.43-4,6.15-2.73,11.8,12.91,15.24,9.93c0,0-1.72-4.72-4.67-5.21,0,0,13.52-11.66-12.78-32.51,0,0-17.45-12.91-36.63.74,0,0,4.92,22.83-17.21,13.4,0,0-15.24-8.19-6.64-24.07,0,0-69.85-32.84-15.66-123.81,0,0,31.9-46,50.79-55.33,0,0,5-3.75-.62-7.5,0,0-8.05-4.06,8.05-7.5,0,0,8.67,2.5,8.67,11.88,0,0,39.33-3.13,39.64,33.76,0,0,3.1,12.19-12.39,35.33,0,0-9,12.82,0,19.38,0,0,4,2.81,6.5.94,0,0-3.1-10.32,7.74-10,0,0,7.43.94,3.72,7.82,0,0,26.63-22.82,24.46-31.89,0,0,3.49-8.76-16.72-25.95,0,0-9.6-10-3.72-18.76,0,0,7.12-4.69,7.12-7.82,0,0,6.19-4.38,6.19,3.13,0,0,10.53-5.31,11.15-8.75,0,0,4.65-.94,2.79,6.25,0,0-7.43,11.57-11.46,10.94,0,0,.31,7.82,5.57,7.82,0,0,13.32-.63,17-2.19,0,0,10.53-15.94,26.32-16.88,0,0,14.55-4.38,15.79-6.88s-4-1.88,3.41-9.07c0,0,4.65-1.56,6.81-1.56,0,0,12.39-6.25,12.39-9.07,0,0,3.57-7.5,7.51-7.5,0,0-1.63-4.69,3.64-9.38,0,0-18-10.32,2.15-28.45,0,0-4.63-1.88-3.7-5.31,0,0-5-5.31-4.34-6.88l3.72.94S494.17,295,500.21,295.91Z" transform="translate(-62.85 -53.86)"/><path class="c" d="M343.6,552.1s-15.45-18.15-16.52-41.62c0,0-15.92-.39-11.67-13.24,0,0,8.45-3.8,7.45,4.26,0,0,5,12.37,14.66-7.14,0,0-.46-13.24-1.87-17.81,0,0-5.84-33.33,8.76-50,0,0-12-3.43-9.08-10.82,0,0,4.37-2.83,7.85-.84,0,0,12.46-1.43-4.12-17,0,0-12.77-10.42-40,27.87,0,0-33.91,41.83-33.28,70.05,0,0-5.27,38.76,24.33,49.27,0,0,13.66-16.66,18.88,10.71C309,555.81,326.55,545.44,343.6,552.1Z" transform="translate(-62.85 -53.86)"/></svg>