<svg xmlns="http://www.w3.org/2000/svg" viewBox="0 0 1017.54 1017.54"><defs><style>.a{fill:#ee92c2;stroke:#ee92c2;}.a,.b{stroke-miterlimit:10;}.b{fill:#fdf8fb;stroke:#fdf8fb;}</style></defs><title>facebook</title><circle class="a" cx="508.77" cy="508.77" r="508.27"/><path class="b" d="M692.83,132.57l-97.62-.16c-109.67,0-180.54,72.71-180.54,185.26v85.42H316.52a15.35,15.35,0,0,0-15.35,15.36V542.21a15.35,15.35,0,0,0,15.35,15.35h98.15V869.84A15.34,15.34,0,0,0,430,885.19H558.08a15.35,15.35,0,0,0,15.35-15.35V557.55H688.19a15.34,15.34,0,0,0,15.35-15.35l0-123.76a15.36,15.36,0,0,0-15.36-15.36H573.43V330.68c0-34.8,8.29-52.47,53.63-52.47l65.76,0a15.35,15.35,0,0,0,15.34-15.35V147.92A15.35,15.35,0,0,0,692.83,132.57Z" transform="translate(-6.44 -0.03)"/></svg>