<svg xmlns="http://www.w3.org/2000/svg" viewBox="0 0 1016.37 1016.37"><defs><style>.a{fill:#ee92c2;stroke:#ee92c2;}.a,.b{stroke-miterlimit:10;}.b{fill:#fdf8fb;stroke:#fdf8fb;}</style></defs><title>instagram</title><circle class="a" cx="508.18" cy="508.18" r="507.68"/><path class="b" d="M657.23,201.31H375.39c-95.71,0-173.58,77.87-173.58,173.58V656.73c0,95.72,77.87,173.58,173.58,173.58H657.23c95.72,0,173.59-77.87,173.59-173.58V374.89C830.82,279.18,752.95,201.31,657.23,201.31ZM775,656.73A117.91,117.91,0,0,1,657.23,774.51H375.39A117.9,117.9,0,0,1,257.62,656.73V374.89A117.91,117.91,0,0,1,375.39,257.12H657.23A117.91,117.91,0,0,1,775,374.89V656.73Z" transform="translate(-8.13 -7.63)"/><path class="b" d="M516.31,353.74c-89.37,0-162.08,72.71-162.08,162.08s72.71,162.07,162.08,162.07,162.08-72.7,162.08-162.07S605.68,353.74,516.31,353.74Zm0,268.34A106.27,106.27,0,1,1,622.58,515.82,106.39,106.39,0,0,1,516.31,622.08Z" transform="translate(-8.13 -7.63)"/><path class="b" d="M685.19,306.42a40.9,40.9,0,1,0,28.95,12A41.09,41.09,0,0,0,685.19,306.42Z" transform="translate(-8.13 -7.63)"/></svg>