<svg xmlns="http://www.w3.org/2000/svg" viewBox="0 0 1014.14 1014.14"><defs><style>.a{fill:#ee92c2;stroke:#ee92c2;}.a,.b{stroke-miterlimit:10;}.b{fill:#fdf8fb;stroke:#fdf8fb;}</style></defs><title>twitter</title><circle class="a" cx="507.07" cy="507.07" r="506.57"/><path class="b" d="M863.36,286.16a291.9,291.9,0,0,1-83.93,23,146.78,146.78,0,0,0,64.25-80.81,294.67,294.67,0,0,1-92.88,35.49A146.28,146.28,0,0,0,501.7,397.12C380.24,391,272.53,332.83,200.45,244.4a146.34,146.34,0,0,0,45.23,195.12,146.18,146.18,0,0,1-66.21-18.34V423a146.31,146.31,0,0,0,117.24,143.3,148.05,148.05,0,0,1-38.51,5.12,140.3,140.3,0,0,1-27.52-2.72A146.25,146.25,0,0,0,367.19,670.23,293.26,293.26,0,0,1,185.66,732.7a310.65,310.65,0,0,1-34.86-2,413.17,413.17,0,0,0,224,65.76c268.88,0,415.86-222.71,415.86-415.86l-.49-18.92A291.88,291.88,0,0,0,863.36,286.16Z"/></svg>